HIERARCHY
ROOT Hips
{
	OFFSET 1.640526 106.027718 -1.111724
	CHANNELS 6 Xposition Yposition Zposition Xrotation Yrotation Zrotation
	JOINT Chest
	{
		OFFSET 0.304657 13.577858 1.305048
		CHANNELS 3 Xrotation Yrotation Zrotation
		JOINT Chest2
		{
			OFFSET -0.939731 21.295029 2.169158
			CHANNELS 3 Xrotation Yrotation Zrotation
			JOINT Chest3
			{
				OFFSET -0.725200 14.906647 -0.293215
				CHANNELS 3 Xrotation Yrotation Zrotation
				JOINT Neck
				{
					OFFSET 0.206343 17.219269 1.438838
					CHANNELS 3 Xrotation Yrotation Zrotation
					JOINT Head
					{
						OFFSET -0.359955 10.384766 1.361906
						CHANNELS 3 Xrotation Yrotation Zrotation
						End Site
						{
							OFFSET -0.357369 10.394104 1.289458
						}
					}
				}
				JOINT LeftCollar
				{
					OFFSET 4.514687 12.938324 3.744577
					CHANNELS 3 Xrotation Yrotation Zrotation
					JOINT LeftUpArm
					{
						OFFSET 14.063680 -5.708710 -8.838728
						CHANNELS 3 Xrotation Yrotation Zrotation
						JOINT LeftLowArm
						{
							OFFSET 3.855364 -33.538757 0.128876
							CHANNELS 3 Xrotation Yrotation Zrotation
							JOINT LeftHand
							{
								OFFSET -1.289577 -27.974396 10.803611
								CHANNELS 3 Xrotation Yrotation Zrotation
								End Site
								{
									OFFSET -0.281841 -6.113968 2.361187
								}
							}
						}
					}
				}
				JOINT RightCollar
				{
					OFFSET -3.889228 13.000946 4.202150
					CHANNELS 3 Xrotation Yrotation Zrotation
					JOINT RightUpArm
					{
						OFFSET -14.413582 -6.206497 -7.888240
						CHANNELS 3 Xrotation Yrotation Zrotation
						JOINT RightLowArm
						{
							OFFSET -4.617668 -33.427383 -1.011001
							CHANNELS 3 Xrotation Yrotation Zrotation
							JOINT RightHand
							{
								OFFSET 1.475950 -28.021767 10.656335
								CHANNELS 3 Xrotation Yrotation Zrotation
								End Site
								{
									OFFSET 0.322578 -6.124435 2.329052
								}
							}
						}
					}
				}
			}
		}
	}
	JOINT LeftUpLeg
	{
		OFFSET 10.017502 -0.235985 0.114510
		CHANNELS 3 Xrotation Yrotation Zrotation
		JOINT LeftLowLeg
		{
			OFFSET 2.939908 -47.207630 -2.604919
			CHANNELS 3 Xrotation Yrotation Zrotation
			JOINT LeftFoot
			{
				OFFSET -1.536975 -42.858440 -12.702728
				CHANNELS 3 Xrotation Yrotation Zrotation
				JOINT LeftToe
				{
					OFFSET -0.668504 -16.516800 16.920643
					CHANNELS 3 Xrotation Yrotation Zrotation
					End Site
					{
						OFFSET 1.122499 -2.118352 23.533199
					}
				}
			}
		}
	}
	JOINT RightUpLeg
	{
		OFFSET -10.017509 0.235786 -0.114529
		CHANNELS 3 Xrotation Yrotation Zrotation
		JOINT RightLowLeg
		{
			OFFSET -2.459406 -47.307137 0.008873
			CHANNELS 3 Xrotation Yrotation Zrotation
			JOINT RightFoot
			{
				OFFSET -0.653322 -42.466965 -14.025385
				CHANNELS 3 Xrotation Yrotation Zrotation
				JOINT RightToe
				{
					OFFSET -0.880062 -18.831110 14.288876
					CHANNELS 3 Xrotation Yrotation Zrotation
					End Site
					{
						OFFSET -2.907640 -5.512943 22.819054
					}
				}
			}
		}
	}
}
MOTION
Frames: 5
Frame Time: 0.033333
5.298024 96.757179 -4.984428 9.517616 -19.100645 16.492086 14.426568 0.191351 -3.122950 -3.664059 8.181521 -13.928479 -7.288899 -7.607337 -2.789186 1.808736 14.498045 -14.392312 -0.000002 -0.000000 0.000001 -4.379278 -6.301313 11.989665 -13.921746 -8.667951 42.257919 -18.586176 14.772331 51.436461 -0.000003 -0.000001 -0.000001 -4.041148 12.168908 -52.889454 -15.638165 15.508056 -68.648278 -69.333742 15.270054 -41.653482 0.000002 -0.000002 0.000000 -27.882748 3.059994 -12.780940 20.524572 -5.041875 -13.222732 -13.852841 22.960538 16.121526 0.000000 -0.000000 -0.000001 -50.382194 12.814336 -19.026477 33.948769 30.529491 107.824488 17.718376 -66.320720 14.888028 -0.000002 0.000001 -0.000001 
5.286989 96.688286 -5.033958 9.254568 -19.347911 16.381473 15.074832 0.153792 -3.344737 -4.032146 8.122798 -13.778501 -7.183225 -7.464925 -2.864280 1.832868 14.360877 -14.315375 0.000002 -0.000000 0.000001 -4.211718 -7.130867 11.973512 -13.903270 -8.727474 42.787211 -18.048616 15.133587 51.391313 -0.000006 -0.000001 -0.000000 -4.159624 12.034365 -52.692652 -15.725749 15.662013 -68.863320 -69.271983 15.330517 -41.784451 0.000003 0.000000 0.000002 -27.801039 3.038845 -12.676482 20.917255 -5.199543 -13.268414 -13.961148 22.894873 16.051896 0.000001 0.000000 -0.000003 -50.249794 12.721740 -18.948714 34.176989 30.809146 107.571368 17.914654 -66.353423 15.239962 0.000001 0.000000 0.000001 
5.271628 96.617416 -5.085509 8.663579 -19.277823 16.280917 15.214858 0.151415 -3.332093 -3.784608 8.030610 -13.695380 -7.392440 -7.150096 -2.957153 2.185743 14.203313 -14.268841 0.000002 0.000000 0.000001 -4.137549 -7.510526 11.878718 -14.036055 -8.995056 42.574888 -17.843972 15.082273 51.204975 -0.000004 -0.000000 0.000001 -4.326570 11.792559 -52.708590 -15.662715 15.647405 -68.836928 -69.743089 15.554077 -41.504768 0.000004 0.000003 0.000003 -27.659012 3.049381 -12.732907 21.472851 -5.277951 -13.229495 -13.691525 22.717250 15.854947 0.000000 -0.000000 -0.000001 -50.071813 12.716863 -19.079227 34.062112 30.680684 107.779040 18.051601 -66.399916 15.189268 -0.000003 -0.000002 -0.000002 
5.254158 96.545303 -5.131541 8.598758 -19.398174 16.227093 15.432905 0.143411 -3.361703 -3.682434 8.048901 -13.725528 -7.487824 -7.708880 -3.013116 2.268285 14.503598 -14.487063 0.000001 -0.000000 0.000002 -4.301063 -6.558737 11.943250 -14.254937 -9.327659 42.578996 -18.166710 14.969352 51.101187 0.000002 -0.000000 0.000001 -4.140989 11.985420 -52.713535 -15.449770 15.369025 -69.017156 -69.301995 16.291362 -43.253635 0.000002 0.000001 -0.000002 -27.922276 3.048383 -12.621972 22.026704 -5.481954 -13.329010 -13.702931 22.848591 15.942432 0.000001 -0.000000 -0.000000 -50.058661 12.745107 -19.143470 34.439545 31.222028 107.505859 18.919976 -66.632409 15.838655 -0.000000 0.000002 -0.000001 
5.241330 96.478035 -5.181406 8.547707 -19.326702 16.201519 15.674784 0.118781 -3.362358 -4.169709 8.087816 -13.661945 -7.250271 -7.938258 -2.997268 2.341388 14.630723 -14.575731 -0.000003 0.000001 0.000000 -4.384456 -5.903488 11.907931 -14.285010 -9.453322 42.437133 -18.333679 14.823472 51.123618 -0.000006 0.000001 -0.000002 -4.002995 12.073164 -52.874813 -15.343904 15.358570 -69.034867 -68.745185 16.666664 -44.450171 0.000003 0.000000 0.000001 -27.990679 3.065756 -12.671820 22.106478 -5.555698 -13.125549 -13.959751 22.700240 15.980387 0.000000 -0.000000 -0.000001 -50.237185 12.833531 -19.153824 33.956849 30.749546 108.013875 19.301310 -67.195995 16.307555 -0.000001 -0.000001 0.000001 
